<?xml version="1.0" encoding="UTF-8"?>
<svg width="37px" height="45px" viewBox="0 0 37 45" version="1.1" xmlns="http://www.w3.org/2000/svg" xmlns:xlink="http://www.w3.org/1999/xlink">
    <title>coverage-icon</title>
    <g id="Page-1" stroke="none" stroke-width="1" fill="none" fill-rule="evenodd">
        <g id="12_Savings" transform="translate(-790.000000, -1261.000000)" stroke="#00B188" stroke-width="1.25">
            <g id="Group-6" transform="translate(791.000000, 1160.000000)">
                <g id="Group-3" transform="translate(0.000000, 92.000000)">
                    <g id="coverage-icon" transform="translate(0.000000, 10.000000)">
                        <g id="Group-5" transform="translate(0.000000, 0.068100)">
                            <path d="M17.8277,0.5569 L17.8277,0.5569 C15.3887,2.3169 12.6907,3.7389 9.8007,4.7569 C6.9117,5.7739 3.8307,6.3869 0.6247,6.5299 L0.6247,20.7459 C0.6247,25.9959 2.4567,30.8189 5.5177,34.6179 C8.5797,38.4169 12.8707,41.1919 17.7907,42.3469 L17.8277,42.3559 L17.8647,42.3469 C22.7847,41.1919 27.0757,38.4169 30.1377,34.6179 C33.1987,30.8189 35.0307,25.9959 35.0307,20.7459 L35.0307,6.5299 C31.8247,6.3869 28.7437,5.7739 25.8547,4.7559 C22.9647,3.7379 20.2667,2.3159 17.8277,0.5569 Z" id="Stroke-1"></path>
                            <path d="M17.8277,5.9874 L17.8277,5.9874 C16.0197,7.2894 14.0197,8.3424 11.8777,9.0954 C9.7357,9.8484 7.4517,10.3024 5.0757,10.4074 L5.0757,20.9324 C5.0757,24.8184 6.4337,28.3884 8.7027,31.2004 C10.9717,34.0124 14.1527,36.0664 17.7997,36.9214 L17.8277,36.9284 L17.8557,36.9214 C21.5027,36.0664 24.6837,34.0124 26.9527,31.2004 C29.2217,28.3884 30.5797,24.8184 30.5797,20.9324 L30.5797,10.4074 C28.2027,10.3024 25.9187,9.8484 23.7777,9.0954 C21.6357,8.3424 19.6367,7.2894 17.8277,5.9874 Z" id="Stroke-3"></path>
                        </g>
                        <line x1="17.9394" y1="14.5277" x2="17.9394" y2="29.1527" id="Stroke-6"></line>
                        <line x1="10.6297" y1="21.8413" x2="25.2547" y2="21.8413" id="Stroke-7"></line>
                    </g>
                </g>
            </g>
        </g>
    </g>
</svg>