<?xml version="1.0" encoding="UTF-8"?>
<svg width="72px" height="80px" viewBox="0 0 72 80" version="1.1" xmlns="http://www.w3.org/2000/svg" xmlns:xlink="http://www.w3.org/1999/xlink">
    <title>do-not-crush</title>
    <defs>
        <polygon id="path-1" points="0.0624864865 0.261821822 27.6162803 0.261821822 27.6162803 41.0545425 0.0624864865 41.0545425"></polygon>
        <polygon id="path-3" points="0 0.381793794 44.3530931 0.381793794 44.3530931 36.0757678 0 36.0757678"></polygon>
    </defs>
    <g id="Page-1" stroke="none" stroke-width="1" fill="none" fill-rule="evenodd">
        <g id="11_Dosing" transform="translate(-1137.000000, -806.000000)">
            <g id="do-not-crush" transform="translate(1137.000000, 806.000000)">
                <g id="Group-3" transform="translate(43.903904, 0.218070)">
                    <mask id="mask-2" fill="white">
                        <use xlink:href="#path-1"></use>
                    </mask>
                    <g id="Clip-2"></g>
                    <path d="M27.6162803,41.0545425 L0.0624864865,41.0545425 L0.0624864865,13.8695976 C0.0624864865,6.36705506 6.24266667,0.261429429 13.8393834,0.261429429 C21.4361001,0.261429429 27.6162803,6.36705506 27.6162803,13.8695976 L27.6162803,41.0545425 Z M2.8111952,38.3391872 L24.8675716,38.3391872 L24.8675716,13.8695976 C24.8675716,7.86403203 19.9214655,2.97874675 13.8393834,2.97874675 C7.7573013,2.97874675 2.8111952,7.86207007 2.8111952,13.8695976 L2.8111952,38.3391872 Z" id="Fill-1" fill="#00B188" mask="url(#mask-2)"></path>
                </g>
                <g id="Group-6" transform="translate(0.000000, 32.350202)">
                    <mask id="mask-4" fill="white">
                        <use xlink:href="#path-3"></use>
                    </mask>
                    <g id="Clip-5"></g>
                    <path d="M34.9297898,36.0757678 L9.06524525,26.781954 C1.92958959,24.2176697 -1.76674675,16.3933654 0.830890891,9.34403604 C2.8007007,3.98395596 8.00186186,0.381793794 13.7759159,0.381793794 C15.3808008,0.381793794 16.9660661,0.660392392 18.4846246,1.20777978 L44.3530931,10.5015936 L34.9297898,36.0757678 Z M13.7759159,3.09911111 C9.15745746,3.09911111 4.99221221,5.98123323 3.41479479,10.272044 C2.40830831,13.007019 2.53975976,15.9636957 3.78560561,18.6005726 C5.02752753,21.2374494 7.23865866,23.2366887 10.006987,24.2314034 L33.2856657,32.5952472 L40.8294094,12.1241361 L17.5468068,3.76029229 C16.3264665,3.32277477 15.059039,3.09911111 13.7759159,3.09911111 L13.7759159,3.09911111 Z" id="Fill-4" fill="#00B188" mask="url(#mask-4)"></path>
                </g>
                <path d="M53.0795075,52.9872913 C50.9959039,52.9872913 49.2988068,51.3117758 49.2988068,49.2536777 C49.2988068,47.1955796 50.9959039,45.5200641 53.0795075,45.5200641 C55.1631111,45.5200641 56.8602082,47.1955796 56.8602082,49.2536777 C56.8602082,51.3117758 55.1631111,52.9872913 53.0795075,52.9872913 M53.0795075,48.2354194 C52.5105385,48.2354194 52.0494775,48.6905946 52.0494775,49.2536777 C52.0494775,49.8167608 52.5105385,50.2719359 53.0795075,50.2719359 C53.6484765,50.2719359 54.1095375,49.8167608 54.1095375,49.2536777 C54.1095375,48.6905946 53.6484765,48.2354194 53.0795075,48.2354194" id="Fill-7" fill="#00B188"></path>
                <path d="M66.713966,59.3242322 C64.186959,59.3242322 62.1308228,57.2955636 62.1308228,54.7999479 C62.1308228,52.3043323 64.1889209,50.2717397 66.713966,50.2717397 C69.240973,50.2717397 71.2951471,52.3043323 71.2951471,54.7999479 C71.2951471,57.2936016 69.240973,59.3242322 66.713966,59.3242322 M66.713966,52.9870951 C65.7015936,52.9870951 64.8795315,53.7993473 64.8795315,54.7999479 C64.8795315,55.7946627 65.7015936,56.6088769 66.713966,56.6088769 C67.7243764,56.6088769 68.54448,55.7946627 68.54448,54.7999479 C68.5464384,53.7993473 67.7243764,52.9870951 66.713966,52.9870951" id="Fill-9" fill="#00B188"></path>
                <path d="M56.1566486,64.9305385 C54.5223343,64.9305385 53.1940861,63.6199479 53.1940861,62.0091772 C53.1940861,60.3925205 54.5223343,59.079968 56.1566486,59.079968 C57.789001,59.079968 59.1172492,60.3925205 59.1172492,62.0091772 C59.1172492,63.6199479 57.789001,64.9305385 56.1566486,64.9305385" id="Fill-11" fill="#00B188"></path>
                <path d="M46.070006,63.3631271 C44.1845606,63.3631271 42.6503063,61.8484925 42.6503063,59.9865906 C42.6503063,58.1246887 44.1845606,56.6080921 46.070006,56.6080921 C47.9554515,56.6080921 49.4916677,58.1246887 49.4916677,59.9865906 C49.4916677,61.8484925 47.9554515,63.3631271 46.070006,63.3631271 M46.070006,59.3234474 C45.7031191,59.3234474 45.4029389,59.6197037 45.4029389,59.9865906 C45.4029389,60.7164404 46.742959,60.7105546 46.742959,59.9865906 C46.742959,59.6197037 46.4408168,59.3234474 46.070006,59.3234474" id="Fill-13" fill="#00B188"></path>
                <path d="M59.9367608,79.9177698 C57.0919159,79.9177698 54.7807247,77.634046 54.7807247,74.8245165 C54.7807247,72.014987 57.0919159,69.7332252 59.9367608,69.7332252 C62.7816056,69.7332252 65.0927968,72.014987 65.0927968,74.8245165 C65.0927968,77.634046 62.7816056,79.9177698 59.9367608,79.9177698 M59.9367608,72.4485806 C58.6104745,72.4485806 57.5313954,73.5158879 57.5313954,74.8245165 C57.5313954,76.1351071 58.6104745,77.2004525 59.9367608,77.2004525 C61.263047,77.2004525 62.3421261,76.1351071 62.3421261,74.8245165 C62.3421261,73.5158879 61.263047,72.4485806 59.9367608,72.4485806" id="Fill-15" fill="#00B188"></path>
            </g>
        </g>
    </g>
</svg>