<?xml version="1.0" encoding="UTF-8"?>
<svg width="59px" height="112px" viewBox="0 0 59 112" version="1.1" xmlns="http://www.w3.org/2000/svg" xmlns:xlink="http://www.w3.org/1999/xlink">
    <title>eat-icon</title>
    <g id="Page-1" stroke="none" stroke-width="1" fill="none" fill-rule="evenodd">
        <g id="9_therapeutic_Levels" transform="translate(-157.000000, -4935.000000)" fill="#FB3449">
            <path d="M177.24952,4935.00542 C178.505917,4935.00542 179.52928,4936.02391 179.52928,4937.27436 L179.52928,4937.27436 L179.52928,4968.92429 L184.164802,4968.92429 L184.164802,4937.27436 C184.164802,4936.13981 185.091971,4935.21711 186.231864,4935.21711 C187.37168,4935.21711 188.298797,4936.13988 188.293747,4937.27436 L188.293747,4937.27436 L188.293747,4968.89332 C188.293747,4976.11317 183.349144,4982.16874 176.651618,4983.93349 L176.651618,4983.93349 L179.964909,5042.43683 C179.964909,5044.95799 174.706208,5047 172.649392,5047 C170.587517,5047 165.333874,5044.95786 165.333874,5042.43683 L165.333874,5042.43683 L168.642108,4983.93349 C161.944582,4982.16899 157,4976.11368 157,4968.89332 L157,4968.89332 L157,4937.27436 C157,4936.13981 157.927104,4935.21711 159.067062,4935.21711 C160.20702,4935.21711 161.134125,4936.13988 161.134125,4937.27436 L161.134125,4937.27436 L161.139196,4968.92429 L165.774717,4968.92429 L165.774717,4937.27436 C165.774717,4936.02392 166.792996,4935.00542 168.054478,4935.00542 C169.310875,4935.00542 170.334238,4936.02391 170.334238,4937.27436 L170.334238,4937.27436 L170.334238,4968.92429 L174.96976,4968.92429 L174.96976,4937.27436 C174.96976,4936.02392 175.988039,4935.00542 177.24952,4935.00542 Z M216,4935 L216,5042.52331 C216,5044.99387 213.988706,5046.99561 211.506364,5046.99561 C209.024021,5046.99561 207.012727,5044.994 207.012727,5042.52331 L207.012727,5042.52331 L207.012727,5002.8473 L193.638686,5002.8473 L193.638822,5002.82579 C193.682518,5001.49587 195.967497,4935 216,4935 L216,4935 Z" id="eat-icon"></path>
        </g>
    </g>
</svg>