<?xml version="1.0" encoding="UTF-8"?>
<svg width="113px" height="116px" viewBox="0 0 113 116" version="1.1" xmlns="http://www.w3.org/2000/svg" xmlns:xlink="http://www.w3.org/1999/xlink">
    <title>fasted-icon</title>
    <g id="Page-1" stroke="none" stroke-width="1" fill="none" fill-rule="evenodd">
        <g id="9_therapeutic_Levels" transform="translate(-845.000000, -4931.000000)">
            <g id="fasted-icon" transform="translate(845.000000, 4931.000000)">
                <path d="M44.7954345,2.91815147 C46.053683,2.91815147 47.078554,3.94492808 47.078554,5.20554506 L47.078554,5.20554506 L47.078554,37.112981 L51.7209057,37.112981 L51.7209057,5.20554506 C51.7209057,4.06177019 52.649441,3.13156173 53.7910138,3.13156173 C54.9325086,3.13156173 55.8609919,4.06183525 55.8559342,5.20554506 L55.8559342,5.20554506 L55.8559342,37.0817502 C55.8559342,44.3603412 50.9040456,50.4651758 44.1966514,52.2442887 L44.1966514,52.2442887 L47.5148249,111.223596 C47.5148249,113.765263 42.2483755,115.823891 40.1885284,115.823891 C38.1236157,115.823891 32.8622318,113.765133 32.8622318,111.223596 L32.8622318,111.223596 L36.1753399,52.2442887 C29.4679456,50.4654361 24.5160778,44.3608617 24.5160778,37.0817502 L24.5160778,37.0817502 L24.5160778,5.20554506 C24.5160778,4.06177019 25.4445481,3.13156173 26.5861858,3.13156173 C27.7278235,3.13156173 28.6562939,4.06183525 28.6562939,5.20554506 L28.6562939,5.20554506 L28.6613724,37.112981 L33.3037241,37.112981 L33.3037241,5.20554506 C33.3037241,3.94494109 34.3235037,2.91815147 35.5868437,2.91815147 C36.8450922,2.91815147 37.8699632,3.94492808 37.8699632,5.20554506 L37.8699632,5.20554506 L37.8699632,37.112981 L42.5123149,37.112981 L42.5123149,5.20554506 C42.5123149,3.94494109 43.5320945,2.91815147 44.7954345,2.91815147 Z M83.6030115,2.91268609 L83.6030115,111.310782 C83.6030115,113.801437 81.588754,115.819466 79.102754,115.819466 C76.616754,115.819466 74.6024965,113.801568 74.6024965,111.310782 L74.6024965,111.310782 L74.6024965,71.3119745 L61.2087494,71.3119745 L61.2088849,71.2902907 C61.2526456,69.9495533 63.5409915,2.91268609 83.6030115,2.91268609 L83.6030115,2.91268609 Z" id="Combined-Shape" fill="#96C93D"></path>
                <polygon id="Line" fill="#030F1C" opacity="0.5" points="109.261025 0 112.016303 2.76043609 2.75527815 112.226 6.82121026e-13 109.465564"></polygon>
            </g>
        </g>
    </g>
</svg>