<?xml version="1.0" encoding="UTF-8"?>
<svg width="98px" height="80px" viewBox="0 0 98 80" version="1.1" xmlns="http://www.w3.org/2000/svg" xmlns:xlink="http://www.w3.org/1999/xlink">
    <title>Food-icon</title>
    <defs>
        <polygon id="path-1" points="0.000769230769 0.817948718 97.6110256 0.817948718 97.6110256 78.4871795 0.000769230769 78.4871795"></polygon>
    </defs>
    <g id="Page-1" stroke="none" stroke-width="1" fill="none" fill-rule="evenodd">
        <g id="11_Dosing" transform="translate(-215.000000, -806.000000)">
            <g id="Food-icon" transform="translate(215.000000, 806.000000)">
                <g id="Group-3" transform="translate(0.000000, 0.746667)">
                    <mask id="mask-2" fill="white">
                        <use xlink:href="#path-1"></use>
                    </mask>
                    <g id="Clip-2"></g>
                    <path d="M1.23666667,71.3138462 L27.9033333,71.3138462 L28.0289744,71.3138462 C34.0879487,75.2728205 41.1366667,77.4984615 48.9289744,77.4984615 C54.7417949,77.4984615 60.3084615,76.26 65.5033333,73.7882051 L67.8520513,76.5087179 C68.9648718,77.7446154 70.4494872,78.4882051 72.1802564,78.4882051 L72.3058974,78.4882051 C73.9135897,78.4882051 75.395641,77.8676923 76.5110256,76.7548718 C77.6238462,75.6420513 78.3648718,74.034359 78.2417949,72.3035897 C78.2417949,71.9317949 78.1187179,71.685641 78.1187179,71.3138462 L96.3751282,71.3138462 C97.1161538,71.3138462 97.6110256,70.8189744 97.6110256,70.0779487 L97.6110256,8.23692308 C97.6110256,7.49589744 97.1161538,7.00102564 96.3751282,7.00102564 L69.8315385,7.00102564 L69.7084615,7.00102564 C63.6469231,3.16769231 56.2879487,0.816410256 48.6187179,0.816410256 C40.9520513,0.816410256 33.9648718,3.04461538 27.9033333,7.00102564 L27.7802564,7.00102564 L1.23666667,7.00102564 C0.495641026,7.00102564 0.000769230769,7.49589744 0.000769230769,8.23692308 L0.000769230769,70.0779487 C0.000769230769,70.8189744 0.495641026,71.3138462 1.23666667,71.3138462 L1.23666667,71.3138462 Z M74.6546154,75.0241026 C73.9135897,75.7651282 73.0469231,76.0138462 72.0571795,76.0138462 C71.0674359,76.0138462 70.2033333,75.5189744 69.5828205,74.7779487 L47.3212821,49.2984615 C47.1982051,49.1753846 47.0751282,49.0523077 46.8264103,48.9292308 C46.7033333,48.9292308 34.4597436,44.1035897 29.6366667,35.3241026 C29.2648718,34.7061538 28.5238462,34.4574359 27.9033333,34.8292308 C27.2853846,35.2010256 27.0392308,35.9420513 27.4084615,36.56 C32.2341026,45.4651282 43.4879487,50.2882051 45.5905128,51.1548718 L54.8648718,61.7907692 C52.8879487,62.285641 50.7853846,62.6574359 48.6828205,62.6574359 C35.695641,62.6574359 25.1828205,52.1446154 25.1828205,39.1574359 C25.1828205,26.1702564 35.695641,15.6574359 48.6828205,15.6574359 C61.6674359,15.6574359 72.1802564,26.1702564 72.1802564,39.1574359 C72.1802564,40.6420513 72.0571795,42.0010256 71.8110256,43.3625641 L48.3110256,19.8625641 C47.0751282,18.6266667 45.3417949,18.3805128 43.9828205,19.2446154 C42.3751282,20.234359 41.6315385,22.2138462 42.2520513,24.1933333 C43.4879487,28.0266667 45.2187179,31.3651282 49.6725641,35.9420513 C58.3289744,44.5984615 65.5033333,48.3087179 66.7392308,48.9292308 L68.9648718,51.1548718 C67.6058974,53.5035897 65.8725641,55.4830769 63.77,57.2138462 L50.9084615,45.8369231 C50.1674359,43.734359 45.3417949,32.3548718 36.1905128,27.7779487 C35.5725641,27.5317949 34.8315385,27.7779487 34.5828205,28.3984615 C34.3366667,29.0164103 34.5828205,29.7574359 35.2007692,30.0061538 C44.2289744,34.4574359 48.8058974,46.8266667 48.8058974,46.9497436 C48.9289744,47.1958974 49.0520513,47.3215385 49.1776923,47.4446154 L74.5315385,69.8292308 C75.2725641,70.4471795 75.644359,71.3138462 75.7674359,72.3035897 C75.8905128,73.2933333 75.395641,74.2830769 74.6546154,75.0241026 L74.6546154,75.0241026 Z M69.2135897,47.8138462 L70.0776923,46.9497436 L70.944359,46.0830769 L87.0212821,62.1625641 L85.2905128,63.8933333 L69.2135897,47.8138462 Z M77.9930769,60.06 C76.6341026,62.0369231 75.0264103,63.7702564 73.2930769,65.5010256 L65.7494872,58.9471795 C67.7289744,57.2138462 69.4597436,55.2369231 70.8212821,53.0087179 L77.9930769,60.06 Z M68.1007692,45.4651282 L67.2341026,46.3317949 C65.1315385,45.2189744 58.8238462,41.5061538 51.4033333,34.2112821 C46.8264103,29.634359 45.4674359,26.2958974 44.6007692,23.4497436 C44.3546154,22.585641 44.7238462,21.7189744 45.3417949,21.4728205 C45.4674359,21.3471795 45.7135897,21.3471795 45.8366667,21.3471795 C46.0853846,21.3471795 46.3315385,21.4728205 46.5802564,21.7189744 L69.2135897,44.3523077 L68.1007692,45.4651282 Z M95.1392308,9.47538462 L95.1392308,68.8394872 L76.8802564,68.8394872 C76.6341026,68.5933333 76.3853846,68.2215385 76.1392308,67.9753846 L75.0264103,66.985641 C76.7571795,65.3779487 78.2417949,63.6446154 79.7264103,61.7907692 L84.4264103,66.4907692 C84.6725641,66.7369231 84.9187179,66.8625641 85.2905128,66.8625641 C85.6623077,66.8625641 85.9084615,66.7369231 86.1571795,66.4907692 L89.744359,62.9035897 C90.2392308,62.4087179 90.2392308,61.6676923 89.744359,61.1728205 L83.6828205,55.1112821 C85.9084615,50.1651282 87.1469231,44.7241026 87.1469231,39.1574359 C87.1469231,27.16 81.7033333,16.5241026 73.0469231,9.47538462 L95.1392308,9.47538462 Z M48.8058974,3.29076923 C68.595641,3.29076923 84.6725641,19.3702564 84.6725641,39.1574359 C84.6725641,44.1035897 83.6828205,48.8035897 81.8289744,53.2574359 L74.0366667,45.4651282 C74.5315385,43.3625641 74.7776923,41.26 74.7776923,39.1574359 C74.7776923,24.8112821 63.1520513,13.185641 48.8058974,13.185641 C34.4597436,13.185641 22.8341026,24.8112821 22.8341026,39.1574359 C22.8341026,53.5035897 34.4597436,65.1292308 48.8058974,65.1292308 C51.5264103,65.1292308 54.1238462,64.634359 56.7212821,63.8933333 L63.6469231,71.8087179 C58.9469231,73.9112821 54.0007692,75.0241026 48.8058974,75.0241026 C29.0161538,75.0241026 12.9392308,58.9471795 12.9392308,39.1574359 C12.9392308,19.3702564 29.0161538,3.29076923 48.8058974,3.29076923 L48.8058974,3.29076923 Z M2.4725641,9.47538462 L24.5648718,9.47538462 C15.9084615,16.5241026 10.4648718,27.16 10.4648718,39.1574359 C10.4648718,51.1548718 15.9084615,61.7907692 24.5648718,68.8394872 L2.4725641,68.8394872 L2.4725641,9.47538462 Z" id="Fill-1" fill="#00B188" mask="url(#mask-2)"></path>
                </g>
                <path d="M31.6146154,33.7202564 C31.2428205,33.3484615 30.5017949,33.3484615 30.13,33.7202564 C29.7582051,34.0920513 29.7582051,34.8330769 30.13,35.2048718 L40.7658974,45.8407692 C41.0146154,46.0869231 41.2607692,46.2125641 41.5094872,46.2125641 C41.755641,46.2125641 42.004359,46.0869231 42.2505128,45.8407692 C42.6223077,45.4689744 42.6223077,44.7279487 42.2505128,44.3561538 L31.6146154,33.7202564 Z" id="Fill-4" fill="#00B188"></path>
                <path d="M34.335641,30.9994872 C33.9638462,30.6276923 33.2228205,30.6276923 32.8510256,30.9994872 C32.4792308,31.3712821 32.4792308,32.1123077 32.8510256,32.4841026 L43.4869231,43.12 C43.735641,43.3661538 43.9817949,43.4917949 44.2305128,43.4917949 C44.4766667,43.4917949 44.7253846,43.3661538 44.9715385,43.12 C45.3433333,42.7482051 45.3433333,42.0071795 44.9715385,41.6353846 L34.335641,30.9994872 Z" id="Fill-6" fill="#00B188"></path>
            </g>
        </g>
    </g>
</svg>