<svg xmlns="http://www.w3.org/2000/svg" width="167.875" height="63.563" viewBox="0 0 167.875 63.563"><g transform="translate(-1063.125 -4390)"><path d="M6.636,60c-.222,0-.441-.005-.661-.016-.186-.008-.373-.021-.561-.042a3.8,3.8,0,0,1-.51-.085,2.064,2.064,0,0,1-.334-.116,1.377,1.377,0,0,1-.806-1.2.256.256,0,0,0-.011-.1,1.74,1.74,0,0,0-.114-.291,3.593,3.593,0,0,0-.23-.4c-.1-.162-.216-.318-.334-.468a9.047,9.047,0,0,0-.924-1,9.78,9.78,0,0,0-1.162-.932A1.754,1.754,0,0,1,.5,54.793,2.743,2.743,0,0,1,.331,54.4a4.772,4.772,0,0,1-.187-.771c-.05-.288-.083-.579-.106-.872C.014,52.435,0,52.107,0,51.78V47.974a1.323,1.323,0,0,1,1.336-1.321,1.327,1.327,0,0,1,1.336,1.321v3.809c0,.259.008.518.03.777.016.22.042.437.08.653.011.058.021.121.037.179a12.686,12.686,0,0,1,1.165.965q.128.12.253.244L4,53.59A28.687,28.687,0,0,0,15.81,38.3c2.386-7.223-2.518-18.387-2.12-25.873q.268-5.051,4.786-9.783H5.714l.24,1.105v.013a1.612,1.612,0,0,1,.037.352,2,2,0,0,1-.042.375,1.652,1.652,0,0,1-.145.434.055.055,0,0,0-.01.021l-2.8,5.392a2.089,2.089,0,0,0-.11.259c-.045.127-.083.259-.114.386a3.874,3.874,0,0,0-.075.4,1.938,1.938,0,0,0-.024.281V43.679a1.3,1.3,0,0,1-.392.932,1.342,1.342,0,0,1-1.889,0A1.312,1.312,0,0,1,0,43.679V11.641A4.8,4.8,0,0,1,.05,11c.032-.214.073-.426.123-.635s.113-.418.182-.621a4.621,4.621,0,0,1,.254-.594c0-.005.005-.005.005-.011L3.278,4,2.97,2.59a2.2,2.2,0,0,1-.05-.471A2.068,2.068,0,0,1,3.55.6,2.113,2.113,0,0,1,4.271.146,2.329,2.329,0,0,1,5.089,0H27.911a2.334,2.334,0,0,1,.818.146A2.118,2.118,0,0,1,29.45.6a2.068,2.068,0,0,1,.63,1.517,2.141,2.141,0,0,1-.05.471L29.722,4l2.663,5.134.005.01a4.689,4.689,0,0,1,.254.595c.069.2.13.41.182.621s.091.42.122.635a4.657,4.657,0,0,1,.051.645V52.05c0,.322-.014.65-.038.972-.022.291-.056.581-.1.87a4.635,4.635,0,0,1-.181.763,2.315,2.315,0,0,1-.166.389,1.642,1.642,0,0,1-.479.558,10.937,10.937,0,0,0-1.14.925,8.944,8.944,0,0,0-.9.954c-.118.14-.225.288-.326.436a3.681,3.681,0,0,0-.22.371,1.349,1.349,0,0,0-.106.248v.005a.785.785,0,0,1,0,.079,1.336,1.336,0,0,1-.446.9,1.412,1.412,0,0,1-.369.238,1.753,1.753,0,0,1-.36.117,3.847,3.847,0,0,1-.487.071c-.184.018-.368.029-.553.037-.216.008-.433.014-.652.014ZM18.726,10c-1.251,7.124,5.3,21.08,9.012,27.515A24.9,24.9,0,0,1,30.329,44.1V11.657a1.938,1.938,0,0,0-.024-.281,3.643,3.643,0,0,0-.075-.4c-.032-.127-.069-.259-.115-.386a1.955,1.955,0,0,0-.109-.259l-2.8-5.392a.045.045,0,0,0-.011-.021,1.684,1.684,0,0,1-.144-.434,1.926,1.926,0,0,1-.043-.375,1.56,1.56,0,0,1,.038-.352V3.749l.24-1.105H21.14A20.182,20.182,0,0,0,18.726,10ZM3.321,19.7A.971.971,0,0,1,3,18.994V11.938a2.819,2.819,0,0,1,.032-.378c.021-.122.044-.242.073-.36a2.829,2.829,0,0,1,.108-.355,2.545,2.545,0,0,1,.155-.355v-.005L4.923,7.565a1.064,1.064,0,0,1,.627-.51,1.19,1.19,0,0,1,.838.049,1.027,1.027,0,0,1,.552.574.936.936,0,0,1-.05.77L5.338,11.366a.6.6,0,0,0-.044.1c-.023.062-.041.123-.059.183s-.026.123-.035.188a.8.8,0,0,0-.012.113v7.043a.958.958,0,0,1-.321.711A1.138,1.138,0,0,1,4.1,20,1.15,1.15,0,0,1,3.321,19.7Z" transform="translate(1198 4390)" fill="#8598ab"/><path d="M10.5,53.125l-2.083-6.25H0V43.75H93.75v3.125H85.332l-2.082,6.25Zm11.144-12.5L42.187,22.246V40.625Zm53.356,0V14.062h7.813V40.624Zm-12.5,0V18.75a1.559,1.559,0,0,0-1.562-1.562h-12.5V14.062H71.875V40.624Zm-8.406,0-.035-.066a2.665,2.665,0,0,1,.164-2.669l.2-.3a5.774,5.774,0,0,0,0-6.422,2.656,2.656,0,0,1,0-2.953l.2-.305a5.8,5.8,0,0,0,.359-5.8l-.9-1.8h5.285V40.624Zm-8.781,0V20.312H50.6L52.191,23.5a2.663,2.663,0,0,1-.164,2.669l-.2.3a5.774,5.774,0,0,0,0,6.422,2.656,2.656,0,0,1,0,2.953l-.2.3a5.8,5.8,0,0,0-.829,4.469Zm-32.336,0L10.9,37.3A20.325,20.325,0,0,1,7.813,26.538V22.12A10.266,10.266,0,0,1,10.844,14.8a7.862,7.862,0,0,1,11.125,0l3.488,3.488a1.565,1.565,0,0,0,2.21,0L31.156,14.8a7.862,7.862,0,0,1,11.125,0,10.309,10.309,0,0,1,1.774,2.382H43.75a1.565,1.565,0,0,0-1.043.4L16.961,40.624ZM25,13.414V10.132a7.751,7.751,0,0,0-2.29-5.523L20.769,2.667,22.981.456,24.922,2.4a10.864,10.864,0,0,1,3.2,7.735v3.281l-1.562,1.562Zm25.124-2.476,3.75-4.688H69.254l1.875,4.688Zm24.371,0L72.621,6.25h4.754l3.75,4.687ZM71.875,3.125V0h4.687V3.125Zm-17.188,0V0H68.749V3.125Z" transform="translate(1063.125 4400.438)" fill="#8598ab"/></g></svg>