<?xml version="1.0" encoding="UTF-8"?>
<svg width="62px" height="6px" viewBox="0 0 62 6" version="1.1" xmlns="http://www.w3.org/2000/svg" xmlns:xlink="http://www.w3.org/1999/xlink">
    <title>Graph-line</title>
    <g id="Page-1" stroke="none" stroke-width="1" fill="none" fill-rule="evenodd">
        <g id="8_Absorption" transform="translate(-1161.000000, -1863.000000)" fill="#FB3449">
            <g id="Group-3" transform="translate(1137.000000, 1678.000000)">
                <path d="M83.0633389,185 C84.6841191,185 86,186.347894 86,188.00234 C86,189.659126 84.6841191,191 83.0633389,191 C81.77793,191 80.6842955,190.156622 80.2867423,188.981146 L57.7813744,188.980678 C57.3841845,190.156154 56.2908633,190.999532 55,190.999532 C53.712773,190.999532 52.6202042,190.156154 52.2231699,188.980678 L29.7178427,188.981146 C29.3202895,190.156622 28.226655,191 26.9412461,191 C25.3181734,191 24,189.659126 24,188.00234 C24,186.347894 25.3181734,185 26.9412461,185 C28.2262932,185 29.3196739,185.847316 29.7175068,187.022936 L52.2231699,187.023066 C52.6202042,185.84759 53.712773,185.004212 55,185.004212 C56.2908633,185.004212 57.3841845,185.84759 57.7813744,187.023066 L80.2870781,187.022936 C80.6849111,185.847316 81.7782917,185 83.0633389,185 Z" id="Graph-line"></path>
            </g>
        </g>
    </g>
</svg>