<?xml version="1.0" encoding="UTF-8"?>
<svg width="24px" height="24px" viewBox="0 0 24 24" version="1.1" xmlns="http://www.w3.org/2000/svg" xmlns:xlink="http://www.w3.org/1999/xlink">
    <title>Icons/brand/facebook</title>
    <g id="Page-1" stroke="none" stroke-width="1" fill="none" fill-rule="evenodd">
        <g id="2_Homepage_Hero_Version" transform="translate(-156.000000, -9791.000000)">
            <g id="Group-4" transform="translate(0.000000, 6555.000000)">
                <g id="Footer-Desktop" transform="translate(0.000000, 2549.000000)">
                    <g id="Icons/brand/facebook" transform="translate(156.000000, 687.000000)">
                        <rect id="Box-24pt" x="0" y="0" width="24" height="24"></rect>
                        <path d="M23.9981,11.9991 C23.9981,5.37216 18.626,0 11.9991,0 C5.37216,0 0,5.37216 0,11.9991 C0,17.9882 4.38789,22.9522 10.1242,23.8524 L10.1242,15.4676 L7.07758,15.4676 L7.07758,11.9991 L10.1242,11.9991 L10.1242,9.35553 C10.1242,6.34826 11.9156,4.68714 14.6564,4.68714 C15.9692,4.68714 17.3424,4.92149 17.3424,4.92149 L17.3424,7.87439 L15.8294,7.87439 C14.3388,7.87439 13.8739,8.79933 13.8739,9.74824 L13.8739,11.9991 L17.2018,11.9991 L16.6698,15.4676 L13.8739,15.4676 L13.8739,23.8524 C19.6103,22.9522 23.9981,17.9882 23.9981,11.9991 Z" id="🎨-Style" fill="#00B288"></path>
                    </g>
                </g>
            </g>
        </g>
    </g>
</svg>