<?xml version="1.0" encoding="UTF-8"?>
<svg width="73px" height="74px" viewBox="0 0 73 74" version="1.1" xmlns="http://www.w3.org/2000/svg" xmlns:xlink="http://www.w3.org/1999/xlink">
    <title>info-icon</title>
    <g id="Page-1" stroke="none" stroke-width="1" fill="none" fill-rule="evenodd">
        <g id="5_Infections_Overview" transform="translate(-1137.000000, -12969.000000)" fill="#0066A4">
            <g id="Group-10" transform="translate(1.000000, 12619.000000)">
                <g id="Group-7" transform="translate(971.000000, 318.000000)">
                    <g id="info-icon" transform="translate(165.000000, 32.500000)">
                        <path d="M39.818,30.723 L39.818,53.319 C39.818,54.885 39.488,56.067 38.831,56.868 C38.174,57.672 37.34,58.071 36.329,58.071 C35.318,58.071 34.499,57.663 33.866,56.841 C33.233,56.019 32.918,54.846 32.918,53.319 L32.918,30.951 C32.918,29.406 33.233,28.242 33.866,27.459 C34.499,26.676 35.318,26.283 36.329,26.283 C37.34,26.283 38.174,26.676 38.831,27.459 C39.488,28.242 39.818,29.331 39.818,30.723 M35.951,22.647 C34.862,22.647 33.932,22.314 33.161,21.645 C32.387,20.976 32,20.031 32,18.81 C32,17.703 32.396,16.791 33.188,16.074 C33.98,15.36 34.901,15 35.951,15 C36.965,15 37.862,15.327 38.645,15.975 C39.425,16.623 39.818,17.568 39.818,18.81 C39.818,20.013 39.437,20.952 38.672,21.63 C37.91,22.308 37.001,22.647 35.951,22.647" id="Fill-2"></path>
                        <path d="M36.225,4.485 C53.727,4.485 67.965,18.723 67.965,36.225 C67.965,53.727 53.727,67.965 36.225,67.965 C18.723,67.965 4.485,53.727 4.485,36.225 C4.485,18.723 18.723,4.485 36.225,4.485 M36.225,3.55271368e-13 C16.218,3.55271368e-13 3.55271368e-13,16.218 3.55271368e-13,36.225 C3.55271368e-13,56.232 16.218,72.45 36.225,72.45 C56.232,72.45 72.45,56.232 72.45,36.225 C72.45,16.218 56.232,3.55271368e-13 36.225,3.55271368e-13" id="Fill-4"></path>
                    </g>
                </g>
            </g>
        </g>
    </g>
</svg>