<?xml version="1.0" encoding="UTF-8"?>
<svg width="63px" height="58px" viewBox="0 0 63 58" version="1.1" xmlns="http://www.w3.org/2000/svg" xmlns:xlink="http://www.w3.org/1999/xlink">
    <title>nanoparticles_icon</title>
    <g id="Page-1" stroke="none" stroke-width="1" fill="none" fill-rule="evenodd">
        <g id="6_About_Tolsura" transform="translate(-64.000000, -1838.000000)">
            <g id="nanoparticles_icon" transform="translate(65.000000, 1839.000000)">
                <path d="M19.5,35 C16.4619357,35 14,32.5384275 14,29.5008113 C14,26.4631952 16.4619357,24 19.5,24 C22.5380643,24 25,26.4631952 25,29.5008113 C24.9967542,32.5368048 22.5364414,34.9967547 19.5,35 M19.5,27.384865 C18.3315137,27.384865 17.3837415,28.3324974 17.3837415,29.5008113 C17.3837415,30.6691252 18.3315137,31.615135 19.5,31.615135 C20.6684863,31.615135 21.6162585,30.6691252 21.6162585,29.5008113 C21.6146356,28.3324974 20.6684863,27.3864877 19.5,27.384865" id="Fill-1" fill="#00B188"></path>
                <path d="M19.5,35 C16.4619357,35 14,32.5384275 14,29.5008113 C14,26.4631952 16.4619357,24 19.5,24 C22.5380643,24 25,26.4631952 25,29.5008113 C24.9967542,32.5368048 22.5364414,34.9967547 19.5,35 Z M19.5,27.384865 C18.3315137,27.384865 17.3837415,28.3324974 17.3837415,29.5008113 C17.3837415,30.6691252 18.3315137,31.615135 19.5,31.615135 C20.6684863,31.615135 21.6162585,30.6691252 21.6162585,29.5008113 C21.6146356,28.3324974 20.6684863,27.3864877 19.5,27.384865 Z" id="Stroke-3" stroke="#FEFEFE" stroke-width="0.475"></path>
                <path d="M42.5,26 C39.4619357,26 37,23.5384275 37,20.5008113 C37,17.4631952 39.4619357,15 42.5,15 C45.5380643,15 48,17.4631952 48,20.5008113 C47.9967542,23.5368048 45.5364414,25.9967547 42.5,26 M42.5,18.384865 C41.3315137,18.384865 40.3837415,19.3324974 40.3837415,20.5008113 C40.3837415,21.6691252 41.3315137,22.615135 42.5,22.615135 C43.6684863,22.615135 44.6162585,21.6691252 44.6162585,20.5008113 C44.6146356,19.3324974 43.6684863,18.3864877 42.5,18.384865" id="Fill-5" fill="#00B188"></path>
                <path d="M42.5,26 C39.4619357,26 37,23.5384275 37,20.5008113 C37,17.4631952 39.4619357,15 42.5,15 C45.5380643,15 48,17.4631952 48,20.5008113 C47.9967542,23.5368048 45.5364414,25.9967547 42.5,26 Z M42.5,18.384865 C41.3315137,18.384865 40.3837415,19.3324974 40.3837415,20.5008113 C40.3837415,21.6691252 41.3315137,22.615135 42.5,22.615135 C43.6684863,22.615135 44.6162585,21.6691252 44.6162585,20.5008113 C44.6146356,19.3324974 43.6684863,18.3864877 42.5,18.384865 Z" id="Stroke-7" stroke="#FEFEFE" stroke-width="0.475"></path>
                <path d="M26.5,23 C23.4619357,23 21,20.5384275 21,17.5008113 C21,14.4631952 23.4619357,12 26.5,12 C29.5380643,12 32,14.4631952 32,17.5008113 C31.9967542,20.5368048 29.5364414,22.9967547 26.5,23 M26.5,15.384865 C25.3315137,15.384865 24.3837415,16.3324974 24.3837415,17.5008113 C24.3837415,18.6691252 25.3315137,19.615135 26.5,19.615135 C27.6684863,19.615135 28.6162585,18.6691252 28.6162585,17.5008113 C28.6146356,16.3324974 27.6684863,15.3864877 26.5,15.384865" id="Fill-9" fill="#00B188"></path>
                <path d="M26.5,23 C23.4619357,23 21,20.5384275 21,17.5008113 C21,14.4631952 23.4619357,12 26.5,12 C29.5380643,12 32,14.4631952 32,17.5008113 C31.9967542,20.5368048 29.5364414,22.9967547 26.5,23 Z M26.5,15.384865 C25.3315137,15.384865 24.3837415,16.3324974 24.3837415,17.5008113 C24.3837415,18.6691252 25.3315137,19.615135 26.5,19.615135 C27.6684863,19.615135 28.6162585,18.6691252 28.6162585,17.5008113 C28.6146356,16.3324974 27.6684863,15.3864877 26.5,15.384865 Z" id="Stroke-11" stroke="#FEFEFE" stroke-width="0.475"></path>
                <path d="M55.5,14 C52.4619357,14 50,11.5384275 50,8.50081133 C50,5.46319516 52.4619357,3 55.5,3 C58.5380643,3 61,5.46319516 61,8.50081133 C60.9967542,11.5368048 58.5364414,13.9967547 55.5,14 M55.5,6.38486502 C54.3315137,6.38486502 53.3837415,7.33249742 53.3837415,8.50081133 C53.3837415,9.66912524 54.3315137,10.615135 55.5,10.615135 C56.6684863,10.615135 57.6162585,9.66912524 57.6162585,8.50081133 C57.6146356,7.33249742 56.6684863,6.38648768 55.5,6.38486502" id="Fill-13" fill="#00B188"></path>
                <path d="M55.5,14 C52.4619357,14 50,11.5384275 50,8.50081133 C50,5.46319516 52.4619357,3 55.5,3 C58.5380643,3 61,5.46319516 61,8.50081133 C60.9967542,11.5368048 58.5364414,13.9967547 55.5,14 Z M55.5,6.38486502 C54.3315137,6.38486502 53.3837415,7.33249742 53.3837415,8.50081133 C53.3837415,9.66912524 54.3315137,10.615135 55.5,10.615135 C56.6684863,10.615135 57.6162585,9.66912524 57.6162585,8.50081133 C57.6146356,7.33249742 56.6684863,6.38648768 55.5,6.38486502 Z" id="Stroke-15" stroke="#FEFEFE" stroke-width="0.475"></path>
                <path d="M42.5,11 C39.4619357,11 37,8.5384275 37,5.50081133 C37,2.46319516 39.4619357,0 42.5,0 C45.5380643,0 48,2.46319516 48,5.50081133 C47.9967542,8.53680484 45.5364414,10.9967547 42.5,11 M42.5,3.38486502 C41.3315137,3.38486502 40.3837415,4.33249742 40.3837415,5.50081133 C40.3837415,6.66912524 41.3315137,7.61513498 42.5,7.61513498 C43.6684863,7.61513498 44.6162585,6.66912524 44.6162585,5.50081133 C44.6146356,4.33249742 43.6684863,3.38648768 42.5,3.38486502" id="Fill-17" fill="#00B188"></path>
                <path d="M42.5,11 C39.4619357,11 37,8.5384275 37,5.50081133 C37,2.46319516 39.4619357,0 42.5,0 C45.5380643,0 48,2.46319516 48,5.50081133 C47.9967542,8.53680484 45.5364414,10.9967547 42.5,11 Z M42.5,3.38486502 C41.3315137,3.38486502 40.3837415,4.33249742 40.3837415,5.50081133 C40.3837415,6.66912524 41.3315137,7.61513498 42.5,7.61513498 C43.6684863,7.61513498 44.6162585,6.66912524 44.6162585,5.50081133 C44.6146356,4.33249742 43.6684863,3.38648768 42.5,3.38486502 Z" id="Stroke-19" stroke="#FEFEFE" stroke-width="0.475"></path>
                <path d="M13.5,47 C10.4619357,47 8,44.5384275 8,41.5008113 C8,38.4631952 10.4619357,36 13.5,36 C16.5380643,36 19,38.4631952 19,41.5008113 C18.9967542,44.5368048 16.5364414,46.9967547 13.5,47 M13.5,39.384865 C12.3315137,39.384865 11.3837415,40.3324974 11.3837415,41.5008113 C11.3837415,42.6691252 12.3315137,43.615135 13.5,43.615135 C14.6684863,43.615135 15.6162585,42.6691252 15.6162585,41.5008113 C15.6146356,40.3324974 14.6684863,39.3864877 13.5,39.384865" id="Fill-21" fill="#00B188"></path>
                <path d="M13.5,47 C10.4619357,47 8,44.5384275 8,41.5008113 C8,38.4631952 10.4619357,36 13.5,36 C16.5380643,36 19,38.4631952 19,41.5008113 C18.9967542,44.5368048 16.5364414,46.9967547 13.5,47 Z M13.5,39.384865 C12.3315137,39.384865 11.3837415,40.3324974 11.3837415,41.5008113 C11.3837415,42.6691252 12.3315137,43.615135 13.5,43.615135 C14.6684863,43.615135 15.6162585,42.6691252 15.6162585,41.5008113 C15.6146356,40.3324974 14.6684863,39.3864877 13.5,39.384865 Z" id="Stroke-23" stroke="#FEFEFE" stroke-width="0.475"></path>
                <path d="M39.5,54 C36.4619357,54 34,51.5384275 34,48.5008113 C34,45.4631952 36.4619357,43 39.5,43 C42.5380643,43 45,45.4631952 45,48.5008113 C44.9967542,51.5368048 42.5364414,53.9967547 39.5,54 M39.5,46.384865 C38.3315137,46.384865 37.3837415,47.3324974 37.3837415,48.5008113 C37.3837415,49.6691252 38.3315137,50.615135 39.5,50.615135 C40.6684863,50.615135 41.6162585,49.6691252 41.6162585,48.5008113 C41.6146356,47.3324974 40.6684863,46.3864877 39.5,46.384865" id="Fill-25" fill="#00B188"></path>
                <path d="M39.5,54 C36.4619357,54 34,51.5384275 34,48.5008113 C34,45.4631952 36.4619357,43 39.5,43 C42.5380643,43 45,45.4631952 45,48.5008113 C44.9967542,51.5368048 42.5364414,53.9967547 39.5,54 Z M39.5,46.384865 C38.3315137,46.384865 37.3837415,47.3324974 37.3837415,48.5008113 C37.3837415,49.6691252 38.3315137,50.615135 39.5,50.615135 C40.6684863,50.615135 41.6162585,49.6691252 41.6162585,48.5008113 C41.6146356,47.3324974 40.6684863,46.3864877 39.5,46.384865 Z" id="Stroke-27" stroke="#FEFEFE" stroke-width="0.475"></path>
                <path d="M26.5,44 C23.4619357,44 21,41.5384275 21,38.5008113 C21,35.4631952 23.4619357,33 26.5,33 C29.5380643,33 32,35.4631952 32,38.5008113 C31.9967542,41.5368048 29.5364414,43.9967547 26.5,44 M26.5,36.384865 C25.3315137,36.384865 24.3837415,37.3324974 24.3837415,38.5008113 C24.3837415,39.6691252 25.3315137,40.615135 26.5,40.615135 C27.6684863,40.615135 28.6162585,39.6691252 28.6162585,38.5008113 C28.6146356,37.3324974 27.6684863,36.3864877 26.5,36.384865" id="Fill-29" fill="#00B188"></path>
                <path d="M26.5,44 C23.4619357,44 21,41.5384275 21,38.5008113 C21,35.4631952 23.4619357,33 26.5,33 C29.5380643,33 32,35.4631952 32,38.5008113 C31.9967542,41.5368048 29.5364414,43.9967547 26.5,44 Z M26.5,36.384865 C25.3315137,36.384865 24.3837415,37.3324974 24.3837415,38.5008113 C24.3837415,39.6691252 25.3315137,40.615135 26.5,40.615135 C27.6684863,40.615135 28.6162585,39.6691252 28.6162585,38.5008113 C28.6146356,37.3324974 27.6684863,36.3864877 26.5,36.384865 Z" id="Stroke-31" stroke="#FEFEFE" stroke-width="0.475"></path>
                <path d="M33.5,32 C30.4619357,32 28,29.5384275 28,26.5008113 C28,23.4631952 30.4619357,21 33.5,21 C36.5380643,21 39,23.4631952 39,26.5008113 C38.9967542,29.5368048 36.5364414,31.9967547 33.5,32 M33.5,24.384865 C32.3315137,24.384865 31.3837415,25.3324974 31.3837415,26.5008113 C31.3837415,27.6691252 32.3315137,28.615135 33.5,28.615135 C34.6684863,28.615135 35.6162585,27.6691252 35.6162585,26.5008113 C35.6146356,25.3324974 34.6684863,24.3864877 33.5,24.384865" id="Fill-33" fill="#00B188"></path>
                <path d="M33.5,32 C30.4619357,32 28,29.5384275 28,26.5008113 C28,23.4631952 30.4619357,21 33.5,21 C36.5380643,21 39,23.4631952 39,26.5008113 C38.9967542,29.5368048 36.5364414,31.9967547 33.5,32 Z M33.5,24.384865 C32.3315137,24.384865 31.3837415,25.3324974 31.3837415,26.5008113 C31.3837415,27.6691252 32.3315137,28.615135 33.5,28.615135 C34.6684863,28.615135 35.6162585,27.6691252 35.6162585,26.5008113 C35.6146356,25.3324974 34.6684863,24.3864877 33.5,24.384865 Z" id="Stroke-35" stroke="#FEFEFE" stroke-width="0.475"></path>
                <path d="M9.5,30 C6.46193567,30 4,27.5384275 4,24.5008113 C4,21.4631952 6.46193567,19 9.5,19 C12.5380643,19 15,21.4631952 15,24.5008113 C14.9967542,27.5368048 12.5364414,29.9967547 9.5,30 M9.5,22.384865 C8.33151372,22.384865 7.38374152,23.3324974 7.38374152,24.5008113 C7.38374152,25.6691252 8.33151372,26.615135 9.5,26.615135 C10.6684863,26.615135 11.6162585,25.6691252 11.6162585,24.5008113 C11.6146356,23.3324974 10.6684863,22.3864877 9.5,22.384865" id="Fill-37" fill="#00B188"></path>
                <path d="M9.5,30 C6.46193567,30 4,27.5384275 4,24.5008113 C4,21.4631952 6.46193567,19 9.5,19 C12.5380643,19 15,21.4631952 15,24.5008113 C14.9967542,27.5368048 12.5364414,29.9967547 9.5,30 Z M9.5,22.384865 C8.33151372,22.384865 7.38374152,23.3324974 7.38374152,24.5008113 C7.38374152,25.6691252 8.33151372,26.615135 9.5,26.615135 C10.6684863,26.615135 11.6162585,25.6691252 11.6162585,24.5008113 C11.6146356,23.3324974 10.6684863,22.3864877 9.5,22.384865 Z" id="Stroke-39" stroke="#FEFEFE" stroke-width="0.475"></path>
                <path d="M5.5,56 C2.46193567,56 0,53.5384275 0,50.5008113 C0,47.4631952 2.46193567,45 5.5,45 C8.53806433,45 11,47.4631952 11,50.5008113 C10.9967542,53.5368048 8.53644143,55.9967547 5.5,56 M5.5,48.384865 C4.33151372,48.384865 3.38374152,49.3324974 3.38374152,50.5008113 C3.38374152,51.6691252 4.33151372,52.615135 5.5,52.615135 C6.66848628,52.615135 7.61625848,51.6691252 7.61625848,50.5008113 C7.61463559,49.3324974 6.66848628,48.3864877 5.5,48.384865" id="Fill-41" fill="#00B188"></path>
                <path d="M5.5,56 C2.46193567,56 0,53.5384275 0,50.5008113 C0,47.4631952 2.46193567,45 5.5,45 C8.53806433,45 11,47.4631952 11,50.5008113 C10.9967542,53.5368048 8.53644143,55.9967547 5.5,56 Z M5.5,48.384865 C4.33151372,48.384865 3.38374152,49.3324974 3.38374152,50.5008113 C3.38374152,51.6691252 4.33151372,52.615135 5.5,52.615135 C6.66848628,52.615135 7.61625848,51.6691252 7.61625848,50.5008113 C7.61463559,49.3324974 6.66848628,48.3864877 5.5,48.384865 Z" id="Stroke-43" stroke="#FEFEFE" stroke-width="0.475"></path>
            </g>
        </g>
    </g>
</svg>