<?xml version="1.0" encoding="UTF-8"?>
<svg width="44px" height="45px" viewBox="0 0 44 45" version="1.1" xmlns="http://www.w3.org/2000/svg" xmlns:xlink="http://www.w3.org/1999/xlink">
    <title>no-coverage_icon</title>
    <g id="Page-1" stroke="none" stroke-width="1" fill="none" fill-rule="evenodd">
        <g id="12_Savings" transform="translate(-791.000000, -1369.000000)" stroke="#00B188" stroke-width="1.25">
            <g id="Group-6" transform="translate(791.000000, 1160.000000)">
                <g id="Group-2" transform="translate(0.000000, 200.000000)">
                    <g id="no-coverage_icon" transform="translate(0.000000, 10.000000)">
                        <g id="Group-5" transform="translate(4.000000, 0.359800)">
                            <path d="M17.3273,0.2652 L17.3273,0.2652 C14.8883,2.0252 12.1903,3.4472 9.3003,4.4652 C6.4113,5.4822 3.3303,6.0952 0.1243,6.2382 L0.1243,20.4542 C0.1243,25.7042 1.9563,30.5272 5.0173,34.3262 C8.0793,38.1252 12.3703,40.9002 17.2903,42.0552 L17.3273,42.0642 L17.3643,42.0552 C22.2843,40.9002 26.5753,38.1252 29.6373,34.3262 C32.6983,30.5272 34.5303,25.7042 34.5303,20.4542 L34.5303,6.2382 C31.3243,6.0952 28.2433,5.4822 25.3543,4.4642 C22.4643,3.4462 19.7663,2.0242 17.3273,0.2652 Z" id="Stroke-1"></path>
                            <path d="M17.3273,5.6957 L17.3273,5.6957 C15.5193,6.9977 13.5193,8.0507 11.3773,8.8037 C9.2353,9.5567 6.9513,10.0107 4.5753,10.1157 L4.5753,20.6407 C4.5753,24.5267 5.9333,28.0967 8.2023,30.9087 C10.4713,33.7207 13.6523,35.7747 17.2993,36.6297 L17.3273,36.6367 L17.3553,36.6297 C21.0023,35.7747 24.1833,33.7207 26.4523,30.9087 C28.7213,28.0967 30.0793,24.5267 30.0793,20.6407 L30.0793,10.1157 C27.7023,10.0107 25.4183,9.5567 23.2773,8.8037 C21.1353,8.0507 19.1363,6.9977 17.3273,5.6957 Z" id="Stroke-3"></path>
                        </g>
                        <line x1="21.439" y1="14.5277" x2="21.439" y2="29.1527" id="Stroke-6"></line>
                        <line x1="14.1292" y1="21.8413" x2="28.7542" y2="21.8413" id="Stroke-7"></line>
                        <line x1="0.442" y1="0.4886" x2="42.871" y2="42.9176" id="Stroke-8"></line>
                    </g>
                </g>
            </g>
        </g>
    </g>
</svg>