<?xml version="1.0" encoding="UTF-8"?>
<svg width="56px" height="56px" viewBox="0 0 56 56" version="1.1" xmlns="http://www.w3.org/2000/svg" xmlns:xlink="http://www.w3.org/1999/xlink">
    <title>phone-icon</title>
    <g id="Page-1" stroke="none" stroke-width="1" fill="none" fill-rule="evenodd">
        <g id="12_Savings" transform="translate(-1125.000000, -1794.000000)" fill="#00B189">
            <g id="phone-icon" transform="translate(1125.000000, 1794.000000)">
                <path d="M15.6896812,8 C15.6620059,8.00503124 15.6343306,8.01258132 15.6091736,8.02013141 C12.4064521,9.02921421 10.2503939,10.7655401 9.0880572,12.9724578 C7.92572053,15.1793754 7.75968164,17.8014833 8.2829811,20.5618375 C9.33209187,26.0803557 13.1386205,32.2432078 18.004436,37.3511097 C22.8701228,42.4594625 28.784727,46.5233012 34.2064315,47.6783609 C36.9185075,48.2546216 39.5375167,48.0935704 41.7741469,46.8932038 C44.0107771,45.6928565 45.8120866,43.4583024 46.9668877,40.1090803 C47.0599738,39.8297595 46.9517909,39.5252695 46.705238,39.3642504 L35.8772865,32.4190758 C35.8445811,32.3888754 35.8118757,32.3637128 35.776652,32.3385501 C35.7389164,32.3158999 35.6961444,32.2957685 35.6558905,32.2781559 C35.6156367,32.2605433 35.5753829,32.2479556 35.5351291,32.2378931 L35.4747484,32.2378931 L35.4143677,32.2378931 L35.3942408,32.2378931 C35.3514687,32.2404119 35.3112149,32.2479556 35.2734794,32.2580245 C35.2307073,32.268087 35.1904535,32.2806747 35.152718,32.2982873 C35.1376212,32.3058374 35.1250427,32.3108686 35.1124642,32.3184187 C35.1049158,32.3259688 35.0973674,32.331 35.0923373,32.3385501 C35.0470534,32.3662316 35.0067996,32.4014632 34.9715759,32.4392072 C34.9338403,32.4694011 34.8986166,32.5021202 34.8709413,32.5398642 L31.9927621,35.4790498 C27.0767742,33.1262196 23.4486504,28.9590504 20.238651,23.3396497 L22.8954022,20.6017782 C22.9079807,20.5891969 22.9230774,20.5766156 22.935656,20.5615154 L22.9960367,20.5212526 L22.9960367,20.5011212 C23.0086152,20.4885399 23.023712,20.4759585 23.0362905,20.4633772 L23.0564174,20.4633772 C23.0614475,20.448277 23.0689959,20.4356957 23.0765443,20.4231144 L23.0765443,20.402983 C23.0891228,20.3903952 23.1042196,20.3753015 23.1167981,20.3627202 C23.1243465,20.3425888 23.1293766,20.3224574 23.136925,20.302326 C23.1419551,20.2947759 23.1495035,20.2897382 23.1570519,20.2821945 C23.162082,20.2696068 23.1696304,20.2545131 23.1771788,20.2419317 L23.1771788,20.2016689 L23.1771788,20.1815375 C23.1847272,20.1563684 23.1922756,20.1286869 23.1973057,20.1010119 L23.1973057,20.0607491 L23.1973057,20.0406176 C23.1922756,20.0078985 23.1847272,19.9726733 23.1771788,19.9399606 L23.1771788,19.9198292 C23.1696304,19.9072414 23.162082,19.8946601 23.1570519,19.8795664 L23.1570519,19.8619474 C23.1495035,19.8468472 23.1419551,19.8342659 23.136925,19.8216846 L23.136925,19.8015532 C23.1293766,19.786453 23.1218282,19.7738717 23.1167981,19.7612903 L23.1167981,19.7411589 C23.1042196,19.7210275 23.0891228,19.7008961 23.0765443,19.6807647 C23.0513873,19.6455331 23.0262238,19.6103016 22.9960367,19.5801077 L16.3544809,8.32648956 C16.2437797,8.13775681 16.0475472,8.01696836 15.8311814,8.00438704 C15.7833792,7.99935579 15.735577,7.99935579 15.6902931,8.00438704 L15.6896812,8 Z M15.5085391,9.40906972 L21.7478789,19.9580563 L18.9703663,22.7965526 C18.7690973,23.002898 18.7288435,23.3124192 18.8697318,23.5615461 C22.2988408,29.6789818 26.2938216,34.3094633 31.8720329,36.828305 C32.1135557,36.9440622 32.4028807,36.8962493 32.5966014,36.7075166 L35.5351291,33.7280682 L45.5786145,40.1701188 C44.504321,43.0187291 42.9822763,44.7726418 41.1707906,45.7464866 C39.2612789,46.7732206 36.9894186,46.941809 34.488659,46.4107908 C29.4896517,45.3463708 23.6903343,41.4408777 18.9506903,36.4655532 C14.2107886,31.4905508 10.5250858,25.4612424 9.55126579,20.3404564 C9.06570185,17.7787106 9.24433214,15.4586061 10.2355805,13.5763034 C11.1714653,11.7997147 12.8319187,10.3502533 15.5088289,9.40906972 L15.5085391,9.40906972 Z" id="Fill-1"></path>
                <path d="M6.09167074,0 C2.74445902,0 0,2.74199428 0,6.08436347 L0,49.9156391 C0,53.2579432 2.74185449,56 6.09167074,56 L49.9083299,56 C53.2555416,56 56,53.2580083 56,49.9156391 L56,6.08436347 C56,2.74205939 53.2581462,0 49.9083299,0 L6.09167074,0 Z M6.09167074,1.3023317 L49.9083299,1.3023317 C52.5484769,1.3023317 54.697735,3.45169994 54.697735,6.08436347 L54.697735,49.9156391 C54.697735,52.5483027 52.5484769,54.697669 49.9083299,54.697669 L6.09167074,54.697669 C3.4515238,54.697669 1.302265,52.5483027 1.302265,49.9156391 L1.302265,6.08436347 C1.302265,3.45169994 3.4515238,1.3023317 6.09167074,1.3023317 Z" id="Fill-2"></path>
            </g>
        </g>
    </g>
</svg>