<?xml version="1.0" encoding="UTF-8"?>
<svg width="124px" height="124px" viewBox="0 0 124 124" version="1.1" xmlns="http://www.w3.org/2000/svg" xmlns:xlink="http://www.w3.org/1999/xlink">
    <title>play-button</title>
    <g id="Page-1" stroke="none" stroke-width="1" fill="none" fill-rule="evenodd">
        <g id="2_Homepage_Hero_Version" transform="translate(-657.000000, -3417.000000)">
            <g id="play-button" transform="translate(657.000000, 3417.000000)">
                <circle id="Oval" fill="#96C93D" opacity="0.75" cx="62" cy="62" r="62"></circle>
                <g id="Icons/arrow_down" transform="translate(31.000000, 32.000000)">
                    <rect id="Box-24pt" x="0" y="0" width="61" height="61"></rect>
                    <path d="M16.1221621,16.1221621 C8.18150152,24.0628227 8.18150152,36.9371773 16.1221621,44.8778379 C24.0628227,52.8184985 36.9371773,52.8184985 44.8778379,44.8778379 C52.8184985,36.9371773 52.8184985,24.0628227 44.8778379,16.1221621 C36.9371773,8.18150152 24.0628227,8.18150152 16.1221621,16.1221621 Z M12.5277026,12.5277026 C22.4535284,2.6018769 38.5464716,2.6018769 48.4722974,12.5277026 C58.3981231,22.4535284 58.3981231,38.5464716 48.4722974,48.4722974 C38.5464716,58.3981231 22.4535284,58.3981231 12.5277026,48.4722974 C2.6018769,38.5464716 2.6018769,22.4535284 12.5277026,12.5277026 Z M22.875,17.7916667 L43.2083333,30.5 L22.875,43.2083333 L22.875,17.7916667 Z" id="🎨-Style" fill="#FFFFFF"></path>
                </g>
            </g>
        </g>
    </g>
</svg>