<?xml version="1.0" encoding="UTF-8"?>
<svg width="63px" height="60px" viewBox="0 0 63 60" version="1.1" xmlns="http://www.w3.org/2000/svg" xmlns:xlink="http://www.w3.org/1999/xlink">
    <title>soluble-icon</title>
    <g id="Page-1" stroke="none" stroke-width="1" fill="none" fill-rule="evenodd" stroke-linecap="round" stroke-linejoin="round">
        <g id="6_About_Tolsura" transform="translate(-744.000000, -1857.000000)" stroke="#00B188" stroke-width="1.7">
            <path d="M806,1905.05988 L806,1916 L745,1916 L745,1905 L806,1905.05988 Z M755,1881 L755,1899 L755,1881 Z M755,1899 L761,1893 L755,1899 Z M755,1899 L749,1893 L755,1899 Z M775,1881 L775,1899 L775,1881 Z M775,1899 L781,1893 L775,1899 Z M776,1899 L770,1893 L776,1899 Z M796,1881 L796,1899 L796,1881 Z M796,1899 L802,1893 L796,1899 Z M796,1899 L790,1893 L796,1899 Z M765,1858 L765,1876 L765,1858 Z M765,1876 L771,1870 L765,1876 Z M766,1876 L760,1870 L766,1876 Z M786,1858 L786,1876 L786,1858 Z M785,1876 L791,1870 L785,1876 Z M786,1876 L780,1870 L786,1876 Z" id="soluble-icon"></path>
        </g>
    </g>
</svg>