<svg xmlns="http://www.w3.org/2000/svg" width="52" height="52" viewBox="0 0 52 52"><path d="M14.229,31.441a.77.77,0,0,1-.545-.224L.224,17.762A.763.763,0,0,1,0,17.219V9.994a.771.771,0,0,1,.224-.545l5.7-5.7A12.84,12.84,0,1,1,24.087,21.907l-9.315,9.31A.762.762,0,0,1,14.229,31.441ZM15,1.537a11.233,11.233,0,0,0-7.995,3.3L1.535,10.313V16.9L14.229,29.588,23,20.823A11.3,11.3,0,0,0,15,1.537Z" transform="translate(24.153 7.716)"/><path d="M4.609,27.831h0a12.809,12.809,0,0,1-4.083-.665.768.768,0,0,1,0-1.457A11.288,11.288,0,0,0,8.231,15V.767A.768.768,0,0,1,9.542.225L23.007,13.676a.775.775,0,0,1,0,1.088l-9.316,9.31a12.8,12.8,0,0,1-6.241,3.442A13.08,13.08,0,0,1,4.609,27.831ZM9.769,2.623,9.768,15A12.842,12.842,0,0,1,3.185,26.209a11.343,11.343,0,0,0,1.451.094A11.212,11.212,0,0,0,12.6,22.986l8.771-8.765Z" transform="translate(15.92 24.169)"/><path d="M24.919,26.768H.769A.769.769,0,0,1,0,26V12.836a12.844,12.844,0,0,1,25.688,0V26A.769.769,0,0,1,24.919,26.768ZM12.843,1.536a11.316,11.316,0,0,0-11.307,11.3v12.4H24.15v-12.4A11.316,11.316,0,0,0,12.843,1.536Z"/><path d="M.768,9.215A.769.769,0,0,1,0,8.447C0,5.593,3.827,0,8.453,0a.768.768,0,1,1,0,1.536C4.6,1.536,1.537,6.5,1.537,8.447a.768.768,0,0,1-.768.768Z" transform="translate(5.489 5.486)"/><path d="M12.844,26.768A12.854,12.854,0,0,1,0,13.933V.768A.769.769,0,0,1,.769,0H24.919a.769.769,0,0,1,.768.768V13.933A12.833,12.833,0,0,1,12.844,26.768ZM1.537,1.536v12.4a11.307,11.307,0,0,0,22.613,0V1.536Z" transform="translate(0 25.232)"/></svg>