<svg xmlns="http://www.w3.org/2000/svg" width="35" height="62" viewBox="0 0 35 62"><path d="M32.047,62H2.953A2.966,2.966,0,0,1,0,59.027V19.7a2.966,2.966,0,0,1,2.953-2.973h4.93V12.511H5.808a.79.79,0,0,1-.779-.8V3.65A3.634,3.634,0,0,1,8.641,0L26.359,0a3.622,3.622,0,0,1,3.587,3.647v8.066a.79.79,0,0,1-.779.8h-2.05v4.218h4.93A2.966,2.966,0,0,1,35,19.7V59.027A2.966,2.966,0,0,1,32.047,62ZM2.956,18.331A1.4,1.4,0,0,0,1.564,19.7V59.03A1.4,1.4,0,0,0,2.956,60.4H32.05a1.4,1.4,0,0,0,1.391-1.373V19.7a1.4,1.4,0,0,0-1.391-1.373Zm6.492-5.818v4.218H25.556V12.514ZM8.64,1.6A2.076,2.076,0,0,0,6.59,3.65v7.265h21.8V3.65A2.039,2.039,0,0,0,26.359,1.6H8.64Z"/><path d="M12.652,19.971H6.9a.792.792,0,0,1-.782-.8V13.713H.779a.79.79,0,0,1-.779-.8V7.053a.79.79,0,0,1,.779-.8H6.114V.8A.791.791,0,0,1,6.9,0h5.756a.791.791,0,0,1,.782.8V6.255h5.334a.79.79,0,0,1,.779.8v5.862a.79.79,0,0,1-.779.8H13.434v5.458A.792.792,0,0,1,12.652,19.971ZM1.562,7.854v4.262H6.9a.79.79,0,0,1,.779.8v5.458H11.87V12.915a.791.791,0,0,1,.782-.8h5.334V7.854H12.652a.793.793,0,0,1-.782-.8l0-5.454H7.678l0,5.454a.791.791,0,0,1-.779.8Z" transform="translate(7.725 29.38)"/></svg>