<?xml version="1.0" encoding="UTF-8"?>
<svg width="45px" height="84px" viewBox="0 0 45 84" version="1.1" xmlns="http://www.w3.org/2000/svg" xmlns:xlink="http://www.w3.org/1999/xlink">
    <title>taking-capsules-swallowing</title>
    <g id="Page-1" stroke="none" stroke-width="1" fill="none" fill-rule="evenodd">
        <g id="11_Dosing" transform="translate(-700.000000, -804.000000)" stroke="#00B188" stroke-width="2.4">
            <path d="M722.496059,826.263548 C727.856154,826.263548 732.730688,821.441715 732.733841,816.136452 C732.735417,810.832749 727.856154,806 722.496059,806 C717.13281,806 712.251971,810.82963 712.258271,816.136452 C712.266159,821.440156 717.140693,826.263548 722.496059,826.263548 Z M711.219364,830.299415 C706.116238,830.299415 702,834.37271 702,839.420663 C702,839.988304 702.044142,840.549708 702.140308,841.090838 L709.707502,879.107212 C710.554082,883.132164 714.326643,886 718.646249,886 L726.353751,886 C730.671781,886 734.422271,883.132164 735.327181,879.107212 L742.859692,841.090838 C742.955858,840.548148 743,839.986745 743,839.420663 C743,834.37115 738.882186,830.299415 733.779059,830.299415 L711.219364,830.299415 Z M723.678433,842.863938 C724.42254,842.85614 725.171377,843.041715 725.790941,843.45653 C727.439958,844.562183 727.93025,847.044834 726.810936,848.677583 L721.602184,856.301754 C720.484446,857.936062 717.973084,858.382066 716.32249,857.276413 C714.671896,856.17076 714.181605,853.68655 715.302495,852.055361 L720.511247,844.465497 C721.209636,843.444055 722.439305,842.877973 723.678433,842.863938 Z M726.881878,858.669006 C728.354328,858.533333 729.949744,859.260039 730.682816,860.549708 C731.658669,862.268226 730.942938,864.700975 729.20406,865.666277 L721.10874,870.191813 C719.371438,871.160234 716.912101,870.449123 715.936248,868.730604 C714.958819,867.010526 715.63829,864.577778 717.378744,863.612476 L725.474065,859.121248 C725.907602,858.879532 726.39001,858.71423 726.881878,858.669006 Z" id="taking-capsules-swallowing"></path>
        </g>
    </g>
</svg>